<?xml version="1.0" encoding="UTF-8"?>
<svg id="Layer_1" data-name="Layer 1" xmlns="http://www.w3.org/2000/svg" viewBox="0 0 498.52 407.46">
  <defs>
    <style>
      .cls-1 {
        fill: #df242d;
      }

      .cls-1, .cls-2 {
        stroke: #231f20;
        stroke-miterlimit: 10;
      }

      .cls-2 {
        fill: #fff;
      }

      .cls-3 {
        fill: #1d9eda;
        stroke-width: 0px;
      }
    </style>
  </defs>
  <path class="cls-3" d="M444.06,60.02C405.08-3.42,276.61,11.91,157.1,94.32,37.57,176.7-27.69,294.94,11.28,358.42c38.98,63.44,167.45,48.11,286.96-34.3,119.5-82.38,184.8-200.62,145.82-264.1ZM286.32,308.19c-99.44,68.54-207.16,79.98-240.59,25.55-33.46-54.43,20.06-154.14,119.5-222.71,99.44-68.54,207.13-79.98,240.59-25.55,33.42,54.46-20.09,154.17-119.5,222.71Z"/>
  <path class="cls-1" d="M496.61,276.9h-158.61l-58.45-46.77L73.42,65.2l208.01,209.21,2.49,2.49H126.58L40.21,77.91,14.12,17.73l-2.62-5.99L6.61.5h.03c1.83,1,3.66,2.06,5.58,3.16,61.55,34.96,165.55,93.68,264.01,149.13,31.42,17.73,62.27,35.1,90.98,51.26,54.23,30.57,100.88,56.78,129.4,72.85Z"/>
  <polygon class="cls-2" points="338.66 277.44 338.6 277.57 323.39 316.59 288.63 405.88 286.99 403.71 281.59 276.67 282.69 276.67 73.42 65.2 279.54 230.13 338 276.9 338.66 277.44"/>
  <path class="cls-2" d="M288.63,405.88l-97.38-128.9c29.65,0,60.71-.03,91.88-.07l5.5,128.97Z"/>
  <path class="cls-3" d="M65.08,353.32c-7.75-5.16-14.22-11.64-19.09-19.55-33.46-54.43,20.06-154.14,119.5-222.71,99.44-68.54,207.13-79.98,240.59-25.55,7.25,11.81,10.39,25.76,9.88,41.04,11.3-15.11,24.28-28.76,37.88-41.6-1.77-8.97-4.89-17.33-9.53-24.9C405.34-3.39,276.87,11.93,157.36,94.35,37.83,176.72-27.43,294.97,11.54,358.44c6.25,10.18,14.84,18.31,25.3,24.48,4.58-12.38,16.12-21.54,28.25-29.61Z"/>
</svg>